<svg width="18" height="8" viewBox="0 0 18 8" fill="none" xmlns="http://www.w3.org/2000/svg">
<path fill-rule="evenodd" clip-rule="evenodd" d="M17.6035 4C17.6035 3.72386 17.3797 3.5 17.1035 3.5L1.10352 3.5C0.827375 3.5 0.603518 3.72386 0.603518 4C0.603518 4.27614 0.827375 4.5 1.10352 4.5L17.1035 4.5C17.3797 4.5 17.6035 4.27614 17.6035 4Z" fill="#333333"/>
<path fill-rule="evenodd" clip-rule="evenodd" d="M4.95707 0.146447C4.76181 -0.0488156 4.44522 -0.0488156 4.24996 0.146447L0.39641 4L4.24996 7.85355C4.44522 8.04882 4.76181 8.04882 4.95707 7.85355C5.15233 7.65829 5.15233 7.34171 4.95707 7.14645L1.81062 4L4.95707 0.853554C5.15233 0.658291 5.15233 0.341709 4.95707 0.146447Z" fill="#333333"/>
</svg>
