<svg width="18" height="8" viewBox="0 0 18 8" fill="none" xmlns="http://www.w3.org/2000/svg">
<path fill-rule="evenodd" clip-rule="evenodd" d="M4.37114e-08 4C1.95703e-08 4.27614 0.223858 4.5 0.5 4.5L16.5 4.5C16.7761 4.5 17 4.27614 17 4C17 3.72386 16.7761 3.5 16.5 3.5L0.5 3.5C0.223858 3.5 6.78525e-08 3.72386 4.37114e-08 4Z" fill="white"/>
<path fill-rule="evenodd" clip-rule="evenodd" d="M12.6464 7.85355C12.8417 8.04882 13.1583 8.04882 13.3536 7.85355L17.2071 4L13.3536 0.146446C13.1583 -0.0488166 12.8417 -0.0488167 12.6464 0.146446C12.4512 0.341708 12.4512 0.65829 12.6464 0.853552L15.7929 4L12.6464 7.14645C12.4512 7.34171 12.4512 7.65829 12.6464 7.85355Z" fill="white"/>
</svg>
