<svg width="18" height="8" viewBox="0 0 18 8" fill="none" xmlns="http://www.w3.org/2000/svg">
<path fill-rule="evenodd" clip-rule="evenodd" d="M0.396484 4C0.396484 4.27614 0.620342 4.5 0.896484 4.5L16.8965 4.5C17.1726 4.5 17.3965 4.27614 17.3965 4C17.3965 3.72386 17.1726 3.5 16.8965 3.5L0.896484 3.5C0.620342 3.5 0.396484 3.72386 0.396484 4Z" fill="#333333"/>
<path fill-rule="evenodd" clip-rule="evenodd" d="M13.0429 7.85355C13.2382 8.04882 13.5548 8.04882 13.75 7.85355L17.6036 4L13.75 0.146446C13.5548 -0.0488166 13.2382 -0.0488167 13.0429 0.146446C12.8477 0.341708 12.8477 0.65829 13.0429 0.853552L16.1894 4L13.0429 7.14645C12.8477 7.34171 12.8477 7.65829 13.0429 7.85355Z" fill="#333333"/>
</svg>
