<svg width="49" height="47" viewBox="0 0 49 47" fill="none" xmlns="http://www.w3.org/2000/svg">
<path d="M41.9048 37.4306L44.1878 42.699C44.6098 43.67 45.7715 44.1293 46.785 43.7258C47.8004 43.3266 48.2818 42.2145 47.8611 41.243L45.5786 35.9763L41.9048 37.4306Z" fill="white"/>
<path d="M43.4277 40.9424L47.1009 39.488L43.4277 40.9424Z" fill="white"/>
<path d="M37.0869 26.311L42.282 28.3678L37.0869 26.311Z" fill="white"/>
<path d="M39.9149 15.6316C39.9149 18.4313 37.542 20.7003 34.6163 20.7003C31.6874 20.7003 29.314 18.4313 29.314 15.6316C29.314 12.8326 31.6874 10.5647 34.6163 10.5647C37.5414 10.5647 39.9149 12.8326 39.9149 15.6316Z" fill="white"/>
<path d="M37.2636 15.6314C37.2636 17.0321 36.078 18.1669 34.6151 18.1669C33.1504 18.1669 31.9619 17.0321 31.9619 15.6314C31.9619 14.232 33.1504 13.0972 34.6151 13.0972C36.078 13.0965 37.2636 14.232 37.2636 15.6314Z" fill="white"/>
<path d="M30.8971 19.2444L23.6458 35.9771L21.8281 43.486L23.0524 43.9709L27.3202 37.4314L28.3356 35.0911C27.5434 33.2613 28.451 31.1635 30.3645 30.407L34.5691 20.6987C33.139 20.6873 31.8452 20.135 30.8971 19.2444Z" fill="white"/>
<path d="M38.3301 19.2432C37.3814 20.1349 36.0864 20.6872 34.6562 20.6981L40.8935 35.0881L44.5656 33.6345L38.3301 19.2432Z" fill="white"/>
<path d="M36.6018 8.02984V2.3273C36.6011 1.27638 35.7084 0.42627 34.614 0.42627C33.5159 0.42627 32.6262 1.27523 32.6255 2.3273L32.6262 8.02984H36.6018Z" fill="white"/>
<path d="M34.6152 10.5644C34.9539 10.5644 35.286 10.5969 35.6074 10.6551V8.03003H33.6201V10.6551C33.9427 10.5963 34.273 10.5644 34.6152 10.5644Z" fill="white"/>
<path d="M7.01348 46.0675H0.401367V0.425049H7.01469C8.47578 0.425049 9.65952 1.56099 9.65952 2.96167V43.5332H9.65896C9.6583 44.9339 8.47456 46.0675 7.01348 46.0675Z" fill="white"/>
<path d="M6.68348 4.22932C7.2314 4.22932 7.67567 3.80351 7.67567 3.27824C7.67567 2.75296 7.2314 2.32715 6.68348 2.32715C6.13556 2.32715 5.69141 2.75296 5.69141 3.27824C5.69141 3.80351 6.13556 4.22932 6.68348 4.22932Z" fill="white"/>
<path d="M14.2881 27.3691C14.2881 27.8924 14.7327 28.3197 15.2802 28.3197C15.8283 28.3197 16.2723 27.8924 16.2723 27.3691C16.2723 27.8924 16.7175 28.3197 17.2644 28.3197C17.8126 28.3197 18.2565 27.8924 18.2565 27.3691C18.2565 27.8924 17.8126 28.3197 17.2644 28.3197C16.7175 28.3197 16.2723 27.8924 16.2723 27.3691C16.2723 27.8924 15.8283 28.3197 15.2802 28.3197C14.7327 28.3197 14.2881 27.8924 14.2881 27.3691Z" fill="white"/>
<path d="M15.6111 0.425049C14.8814 0.425049 14.2881 0.993876 14.2881 1.6945V1.69392V28.3192L16.2717 35.9262L18.256 28.3192V1.69336V1.69392C18.256 0.994446 17.6632 0.425619 16.9329 0.425619L15.6111 0.425049Z" fill="white"/>
</svg>
